<svg xmlns:x="http://ns.adobe.com/Extensibility/1.0/" xmlns:i="http://ns.adobe.com/AdobeIllustrator/10.0/" xmlns:graph="http://ns.adobe.com/Graphs/1.0/" xmlns="http://www.w3.org/2000/svg" xmlns:xlink="http://www.w3.org/1999/xlink" version="1.1" x="0px" y="0px" width="720px" height="540px" viewBox="0 0 720 540" enable-background="new 0 0 720 540" xml:space="preserve"><style>.grid0{fill:	#5e6062;}.grid1{fill:	#56595a;}.grid2{stroke:	#56595a;stroke-width:	0.25;fill:	none;}.grid3{stroke:	#56595a;stroke-width:	2;fill:	none;}.grid4{stroke:	#56595a;stroke-width:	1.5;fill:	none;}.grid5{stroke:	#56595a;fill:	none;}.grid6{stroke:	#56595a;stroke-width:	0.75;fill:	none;}.grid7{stroke:	#56595a;stroke-width:	0.5;fill:	none;}</style><switch><g i:extraneous="self"><g><rect y="0" width="720" height="540" class="grid0"/><path d="M48 0c0 0 164.1 24.8 290.1 26.625C422.123 27.9 507.1 21.1 566 0h-5.333 c0 0-69.458 26.417-205.042 23.625C291.29 22.6 209.4 14.8 107.5 0C95 0 48 0 48 0z" class="grid1"/><path d="M0 48.333c78.515 5.5 257.8 20.2 418.8 1.167C492.5 39.8 557.8 22.8 612 0 c5.875 0 3.4 0 4.9 0C478.667 59 310.7 72.7 0 60.75C0 47.75-0.125 53 0 48.333z" class="grid1"/><path d="M650 0c-56.999 29.667-165.166 77.333-327.832 103c-146.5 24.833-253.5 38.5-322.167 45.8 c-0.167-4 0-3.5-0.001-19.5c136-7.333 256.334-19.5 353.834-36C531.333 65.2 631.6 5.8 647.7 0 C649.334 0 648.5 0 650 0z" class="grid1"/><path d="M424.25 118.5C316.75 159.8 179 201.5 0 246.333c0 33.333-0.333 42-0.333 42 s85.034-33.98 193.999-76.667C269.524 181.9 350.8 153.1 425.5 122C537.661 75.4 634.2 27.2 679.8 0 c0 0-1.334 0.333-2.666-0.167C641.25 18.2 558.5 65.5 424.2 118.5z" class="grid1"/><path d="M-0.5 444.5c72.574-38.142 194.285-115.529 319.76-197.235C468.25 145 612.6 52.9 700.875-0.125 c0.875-0.125 2.5 0 3.1 0.125c-34.375 22.875-206 116.375-378.5 265C215.25 360.8 110.8 461 49 540c-41-0.5-49 0-49 0 S-1 465.5-0.5 444.5z" class="grid1"/><path d="M492.5 203.5c-19.5 29-147 231-218.5 336c38.5 0 94 0 94 0S409.5 360 489.5 223 C544.25 114.2 673.8 35.8 720 4.5c0.25-1 0.5-2.75 0.5-2.75S561.5 96.2 492.5 203.5z" class="grid1"/><path d="M557 229c-7.5 42-23 212.5-29.5 310c33 0 55 0 55 0S547 361 564 233 C578.75 106.2 698.8 37.8 720 17.75c0-4 0.25-1-0.5-2C690 42.2 580 104.2 557 229z" class="grid1"/><path d="M620 204c1.667 91 49.3 218.7 87.7 335.667H720v-55c0 0-80.666-143.667-96.666-270.667 c-10-103.333 84-169.667 96.666-179.667c0-1.667 0.334-1.333-0.333-2.667C687.334 60.3 620.7 112 620 204z" class="grid1"/><path d="M662.25 167.75C659.316 113 702 69 719.8 50.25v2c0 0-49.5 46-54 102 c-3.75 59.5 37.8 132.5 53.8 157.25c0.5 16.8 0 14 0 14S666.282 243.1 662.2 167.75z" class="grid1"/><path d="M695.875 145.125c-0.001-22.234 7.179-46.375 24.125-70.25v2.75c0 0-21 24.875-21.625 68 c0.605 19.8 6.5 43.8 21.5 71.25c0 7.9 0 7.9 0 7.875S695.877 189.5 695.9 145.125z" class="grid1"/><polygon points="121,539.7 63.3,516.7 44.7,539.7" class="grid2"/><path d="M0 378c0 0 216.3 100.3 405.7 162C449.334 540 518 539.7 518 539.667S241.667 456 0 336.3 C0 362 0 378 0 378z" class="grid1"/><path d="M0 231.333c0 0 347.3 192.7 698.3 274.333c4 10.7 7.3 19.3 7.3 19.3 S428 471-0.333 253.333C-0.333 237 0 231.3 0 231.333z" class="grid1"/><path d="M0 152.333c0 0 328 210 719.7 299C719.667 458.7 720 462 720 462S400.333 401.7 0 167.3 C0 159.7 0 152.3 0 152.333z" class="grid1"/><path d="M-0.333 89.667c0 0 326 233 720 317.667c0.333 6-0.333 7.666-0.333 7.666S370 345.667-0.333 100 C-0.333 95.333-0.333 89.667-0.333 89.667z" class="grid1"/><path d="M0.333 36.667C0.333 36.7 329 294 719.7 373c0 4.3 0 5.7 0 5.667S376 315-0.333 45.7 C0 39.7 0.3 36.7 0.3 36.667z" class="grid1"/><path d="M6.667 0.667c0 0 301.3 260.7 713 348.333c0.333-2.333 0-4 0-4S374.334 293.3 15.3 0.3 C8.667 0.3 6.7 0.7 6.7 0.667z" class="grid1"/><path d="M58.333-0.333c0 0 250.7 235.7 661.2 325.833c0.167-2.833 0.167-4.167 0.167-4.167 s-347-56.667-653.333-321.667C60.667 0 58.333-0.333 58.333-0.333z" class="grid1"/><path d="M138.333-0.333c0 0 226.3 218.3 581.7 288c0-1.334-0.333-2.334-0.333-2.334s-307-44.667-575-286 C140.667 0 138.333-0.333 138.333-0.333z" class="grid1"/><path d="M108.546 6.545c0 0 255.3 230.2 611.6 298.545c0-1.334-0.333-2.334-0.333-2.334 S390.728 247.3 114.9 6.212C110.879 6.9 108.5 6.5 108.5 6.545z" class="grid1"/><path d="M171.333 0.333c0 0 233.7 217 548.3 271" class="grid3"/><path d="M198 0.333c0 0 214 204.3 521.7 257.3" class="grid4"/><path d="M222.667 0.667c0 0 209 199.7 497 245.3" class="grid4"/><path d="M244 0c0 0 200.3 192.7 475.3 235.3" class="grid4"/><path d="M264.667 0.333c0 0 190 186.7 455.2 224.4" class="grid5"/><path d="M282.667-0.333c0 0 173.7 178 437.2 217.2" class="grid5"/><path d="M301 0c0 0 167.7 174 418.7 207.3" class="grid5"/><path d="M316.333 0.333c0 0 165.7 169.3 403.7 199.3" class="grid5"/><path d="M330.667 0.333c0 0 143.3 155 389 192.3" class="grid5"/><path d="M344.333 0.333c0 0 144 154 375.3 185" class="grid5"/><path d="M357.667 0c0 0 131.7 147 362.3 179" class="grid6"/><path d="M370.333 0c0 0 131.7 144.7 349.3 173" class="grid6"/><path d="M382.25-0.25c0 0 119.5 137.8 337.8 167" class="grid6"/><path d="M393.5 0.5c0 0 120.8 133.5 326.2 160.8" class="grid6"/><path d="M404.75 0c0 0 117.5 131.8 314.8 156" class="grid6"/><path d="M415.334 0.333c0 0 113 126.7 304.2 150.2" class="grid7"/><path d="M425.834 0.167c0 0 110.8 124.8 293.8 145.3" class="grid7"/><path d="M435.001 0.167c0 0 109.7 120.8 284.7 140.5" class="grid7"/><path d="M444.167 0.167c0 0 104.5 115.8 275.7 135.8" class="grid7"/><path d="M453.834 0.167c0 0 100.3 112.5 266 131" class="grid7"/><path d="M461.667 0.167c0 0 102.3 109.2 258.2 127" class="grid7"/><path d="M471.001 0.167c0 0 93.8 103.5 248.5 122.3" class="grid7"/><path d="M479.667 0.167c0 0 94.7 102.8 240 118.2" class="grid7"/><path d="M488.001 0c0 0 90.8 98.3 231.8 114.2" class="grid7"/><path d="M496.001 0.167c0 0 86.8 93.3 223.5 110.2" class="grid7"/><path d="M504.001 0.333c0 0 81.8 87.3 215.7 106.3" class="grid7"/><path d="M512.166 0.167c0 0 80 85.3 207.7 102.7" class="grid7"/><path d="M520-0.167c0 0 75.7 82 199.8 99.3" class="grid7"/><path d="M527.666 0.333c0 0 75.7 78.5 192.3 94.7" class="grid7"/><path d="M535 0.167c0 0 74.7 76.2 185 91.2" class="grid7"/><path d="M542.833 0c0 0 66.7 70.3 177 88" class="grid7"/><path d="M550 0c0 0 69.7 69.8 169.8 83.8" class="grid7"/><path d="M557.5 0c0 0 66.2 66.2 162.5 80.5" class="grid7"/><path d="M564.166 0.167c0 0 65.5 63.2 155.7 76.8" class="grid7"/><path d="M571.833 0.333c0 0 62.2 59 148.2 73.3" class="grid7"/><path d="M579 0.333c0 0 51.8 51.8 140.8 70" class="grid7"/><path d="M586 0.167c0 0 52.3 50.5 133.8 66.5" class="grid7"/><path d="M592.666 0c0 0 50.7 47.3 127.2 63.3" class="grid7"/><path d="M600 0.333c0 0 54 47.3 119.8 59.5" class="grid7"/><path d="M606.833 0.333c0 0 46.3 41.5 113.2 56.2" class="grid2"/><path d="M613.5 0c0 0 47 39.7 106.5 53.2" class="grid2"/><path d="M621 0c0 0 44.8 37.5 98.8 49.5" class="grid2"/><path d="M628.333 0.167c0 0 44.8 35.7 91.7 45.7" class="grid2"/><path d="M634.833 0.333c0 0 41.2 31.2 85 42.3" class="grid2"/><path d="M642 0c0 0 39.8 29.8 78 39.2" class="grid2"/><path d="M650 0c0 0 28.7 22.8 69.8 35.7" class="grid2"/><path d="M656.5 0.167c0 0 27.7 20.3 63.2 31.5" class="grid2"/><path d="M663.5 0.167c0 0 23.3 18 56.5 28.2" class="grid2"/><path d="M670.333 0c0 0 29 18.7 49.7 25" class="grid2"/><path d="M677.833 0.167c0 0 28.8 17.7 42.2 21" class="grid2"/><path d="M685.166 0c0 0 18.7 12.3 34.8 17.8" class="grid2"/><path d="M693 0.333c0 0 17.2 10.7 27 13.2" class="grid2"/><path d="M700.166 0c0 0 11.5 6.8 19.8 10" class="grid2"/><line x1="708.7" y1="0" x2="720" y2="6.3" class="grid2"/><line x1="716.2" y1="0.2" x2="720.5" y2="1.8" class="grid2"/></g></g></switch></svg>